Coordinates
version=1
nRows=17
nColumns=34
inDegrees=yes

Units are S.I. units (second, meters, Newtons, ...)
If the header above contains a line with 'inDegrees', this indicates whether rotational values are in degrees (yes) or radians (no).

endheader
time	pelvis_tilt	pelvis_list	pelvis_rotation	pelvis_tx	pelvis_ty	pelvis_tz	hip_flexion_r	hip_adduction_r	hip_rotation_r	knee_angle_r	ankle_angle_r	subtalar_angle_r	mtp_angle_r	hip_flexion_l	hip_adduction_l	hip_rotation_l	knee_angle_l	ankle_angle_l	subtalar_angle_l	mtp_angle_l	lumbar_extension	lumbar_bending	lumbar_rotation	arm_flex_r	arm_add_r	arm_rot_r	elbow_flex_r	pro_sup_r	arm_flex_l	arm_add_l	arm_rot_l	elbow_flex_l	pro_sup_l
      1.50000000	     -2.81554192	      0.95802815	     -5.33389645	      1.70486161	      0.87664119	     -0.03878617	     -0.82701148	     -4.42251132	      0.90888601	      0.33492592	      1.33452050	    -23.56972134	      0.00000000	      0.76996975	     -1.92244961	      4.74180364	      2.97563814	      2.07291171	    -13.75547931	      0.00000000	     -3.99371477	      0.36105912	     -0.04630996	      9.64627086	     -7.45942663	     35.74530842	     82.15628099	     91.33198156	      9.35612970	     -7.06729782	     29.54581085	     72.60006612	     88.44007582
      1.51666670	     -2.81478666	      0.97156169	     -5.32917241	      1.70437445	      0.87660230	     -0.03816601	     -0.83528675	     -4.41666497	      0.90867773	      0.33534235	      1.33364941	    -23.56829487	      0.00000000	      0.77165235	     -1.92741750	      4.74079465	      2.97582192	      2.06979905	    -13.75384467	      0.00000000	     -3.98697469	      0.35120600	     -0.04657036	      9.64929291	     -7.46242365	     35.74446039	     82.15698588	     91.32980985	      9.35590817	     -7.06828032	     29.54787435	     72.59851871	     88.43876139
      1.53333330	     -2.80194887	      0.96334433	     -5.33785263	      1.70366811	      0.87647672	     -0.03747375	     -0.87702414	     -4.36635576	      0.89496444	      0.28026499	      1.33596125	    -23.56310607	      0.00000000	      0.76305238	     -1.97209055	      4.75401884	      2.98760882	      2.01635819	    -13.70857019	      0.00000000	     -3.90726246	      0.15869567	     -0.05220327	      9.72947936	     -7.50388550	     35.70572677	     82.17451551	     91.29976860	      9.35783101	     -7.11785298	     29.56590135	     72.56821985	     88.42059962
      1.55000000	     -2.79197954	      0.98036105	     -5.33949613	      1.70297382	      0.87572081	     -0.03725443	     -0.87931950	     -4.35724312	      0.89348373	      0.27524873	      1.33677520	    -23.56336129	      0.00000000	      0.76985360	     -1.97389756	      4.75484994	      2.98148871	      2.01462834	    -13.70604611	      0.00000000	     -3.90549545	      0.15694424	     -0.05354218	      9.73124972	     -7.50693554	     35.70347165	     82.17441944	     91.29782319	      9.35755358	     -7.12020987	     29.56752682	     72.56639380	     88.41947207
      1.56666670	     -2.77557732	      0.98949424	     -5.34400900	      1.70245997	      0.87487382	     -0.03735572	     -0.87616722	     -4.34411892	      0.89030646	      0.26509601	      1.33923252	    -23.56536861	      0.00000000	      0.77960265	     -1.97449705	      4.75659363	      2.97319402	      2.01262155	    -13.70252397	      0.00000000	     -3.90454424	      0.14950255	     -0.05378132	      9.73554976	     -7.50962349	     35.70013080	     82.17482379	     91.29561119	      9.35740073	     -7.12549988	     29.56874689	     72.56392302	     88.41816587
      1.58333330	     -2.79095384	      0.97720605	     -5.36194226	      1.70230837	      0.87471520	     -0.03730635	     -0.86168962	     -4.28361289	      0.85159728	      0.16189969	      1.37587879	    -23.59908357	      0.00000000	      0.81072151	     -2.01398867	      4.77599393	      2.92105451	      1.99097748	    -13.66382841	      0.00000000	     -3.91671518	      0.03802217	     -0.03738540	      9.79610901	     -7.52194691	     35.66872031	     82.18688762	     91.27176881	      9.37222439	     -7.20755913	     29.57268936	     72.53814355	     88.40329616
      1.60000000	     -2.78326711	      0.97506901	     -5.36088603	      1.70259921	      0.87536622	     -0.03720282	     -0.85879187	     -4.28392692	      0.85173057	      0.15967595	      1.37628904	    -23.59935500	      0.00000000	      0.81692013	     -2.01328121	      4.77622459	      2.91759604	      1.99086619	    -13.66339047	      0.00000000	     -3.91631919	      0.03755004	     -0.03696360	      9.79627709	     -7.52178217	     35.66870935	     82.18710302	     91.27142191	      9.37273038	     -7.20864741	     29.57271916	     72.53809265	     88.40306668
      1.61666670	     -2.77339572	      0.97666186	     -5.35983390	      1.70285829	      0.87581700	     -0.03729603	     -0.85574348	     -4.28070739	      0.85211689	      0.15677164	      1.37683721	    -23.59954799	      0.00000000	      0.82431348	     -2.01321443	      4.77644199	      2.91297631	      1.99074061	    -13.66286693	      0.00000000	     -3.91630494	      0.03667576	     -0.03599201	      9.79595424	     -7.52149783	     35.66902495	     82.18717475	     91.27108595	      9.37310087	     -7.21052076	     29.57253555	     72.53786730	     88.40281985
      1.63333330	     -2.81288748	      0.97372557	     -5.26873464	      1.70279475	      0.87564449	     -0.03777481	     -0.89609339	     -4.25545946	      0.87116596	      0.00000000	      1.42411753	    -23.61406310	      0.00000000	      0.86020578	     -2.02525316	      4.79472794	      2.79145767	      1.94586675	    -13.59609742	      0.00000000	     -3.93930648	     -0.02468568	     -0.00101542	      9.71753963	     -7.54004989	     35.70331982	     82.16991012	     91.23775341	      9.43947829	     -7.37096408	     29.55713486	     72.51844778	     88.37845759
      1.65000000	     -2.81167451	      0.97580665	     -5.26849550	      1.70260589	      0.87507856	     -0.03805557	     -0.89771360	     -4.25380097	      0.87149421	      0.00000000	      1.42426817	    -23.61389181	      0.00000000	      0.85972826	     -2.02553804	      4.79446319	      2.79044145	      1.94538140	    -13.59552392	      0.00000000	     -3.93880642	     -0.02544137	     -0.00072023	      9.71650275	     -7.54020216	     35.70371644	     82.16972878	     91.23741192	      9.43973780	     -7.37231604	     29.55716463	     72.51827966	     88.37821488
      1.66666670	     -2.79538980	      0.98773783	     -5.17494634	      1.70241211	      0.87464263	     -0.03817638	     -0.94055620	     -4.29034771	      0.89974831	      0.00000000	      1.43952857	    -23.60252950	      0.00000000	      0.83184468	     -1.99398877	      4.76591358	      2.70473450	      1.90628408	    -13.55903088	      0.00000000	     -3.89767585	     -0.06530079	     -0.01392904	      9.64525966	     -7.62191091	     35.71072393	     82.15137902	     91.20323254	      9.50847429	     -7.48863127	     29.54811225	     72.51214907	     88.35429199
      1.68333330	     -2.79539655	      0.98130012	     -5.17444334	      1.70226192	      0.87446993	     -0.03791512	     -0.93849735	     -4.29392835	      0.89946854	      0.00000000	      1.43975010	    -23.60259835	      0.00000000	      0.82883699	     -1.99180980	      4.76611939	      2.70540369	      1.90592020	    -13.55850798	      0.00000000	     -3.89719680	     -0.06590193	     -0.01457519	      9.64485941	     -7.62285987	     35.71048708	     82.15132988	     91.20290729	      9.50851788	     -7.48894367	     29.54840114	     72.51205920	     88.35409065
      1.70000000	     -2.77559973	      0.97439228	     -5.25686528	      1.70194385	      0.87485741	     -0.03789126	     -0.91518637	     -4.28994725	      0.88945876	      0.00000000	      1.44624281	    -23.60239606	      0.00000000	      0.78246405	     -2.00752938	      4.78405666	      2.68590013	      1.89050374	    -13.53116516	      0.00000000	     -3.87286461	     -0.13077063	     -0.05228061	      9.64468781	     -7.69269445	     35.67701676	     82.15236559	     91.18341504	      9.51093751	     -7.53171313	     29.55572214	     72.50043016	     88.34189377
      1.71666670	     -2.76847263	      0.96637140	     -5.25200619	      1.70151323	      0.87562665	     -0.03860033	     -0.90609159	     -4.29635473	      0.89169329	      0.00000000	      1.44612124	    -23.60060611	      0.00000000	      0.77778496	     -2.00848524	      4.78236919	      2.67992998	      1.89015024	    -13.53001243	      0.00000000	     -3.87009681	     -0.13741860	     -0.05220397	      9.64549026	     -7.69895208	     35.67271438	     82.15282035	     91.18100487	      9.50677596	     -7.53868410	     29.55667722	     72.49783414	     88.34037268
      1.73333330	     -2.75893757	      0.95562057	     -5.25453802	      1.70097605	      0.87637281	     -0.03932050	     -0.89490798	     -4.30377630	      0.89319815	      0.00000000	      1.44516077	    -23.59825314	      0.00000000	      0.77479426	     -2.00586500	      4.78084486	      2.67266905	      1.88975904	    -13.52899488	      0.00000000	     -3.86897991	     -0.14514326	     -0.05669035	      9.64586445	     -7.70929541	     35.66622262	     82.15247549	     91.17842597	      9.50122413	     -7.54489188	     29.55855618	     72.49408268	     88.33884508
      1.75000000	     -2.74997137	      0.94537169	     -5.25758042	      1.70068177	      0.87695168	     -0.03960331	     -0.88388184	     -4.31068150	      0.89403945	      0.00000000	      1.44385940	    -23.59622476	      0.00000000	      0.77371607	     -2.00026321	      4.77945887	      2.66796255	      1.88943406	    -13.52877875	      0.00000000	     -3.86997094	     -0.14949755	     -0.06189798	      9.64584925	     -7.71768291	     35.66133012	     82.15150302	     91.17682019	      9.49702453	     -7.54734636	     29.56056652	     72.49125234	     88.33796990
      1.76666670	     -2.73463095	      1.01358540	     -5.30536750	      1.70052237	      0.87755713	     -0.03975619	     -0.83426501	     -4.43918308	      0.94035631	      0.03243725	      1.34847654	    -23.47593729	      0.00000000	      0.72442923	     -1.87578218	      4.69460376	      2.54659576	      1.84586253	    -13.53466546	      0.00000000	     -3.95585603	     -0.23015957	     -0.20832497	      9.69230900	     -7.96051111	     35.48685217	     82.10907529	     91.11205104	      9.37201234	     -7.58523557	     29.64648689	     72.38482953	     88.30249548
